<?xml version="1.0" standalone="no"?>
<!DOCTYPE svg PUBLIC "-//W3C//DTD SVG 20010904//EN"
 "http://www.w3.org/TR/2001/REC-SVG-20010904/DTD/svg10.dtd">
<svg version="1.0" xmlns="http://www.w3.org/2000/svg"
 width="512.000000pt" height="512.000000pt" viewBox="0 0 512.000000 512.000000"
 preserveAspectRatio="xMidYMid meet">
<metadata>
Created by potrace 1.11, written by Peter Selinger 2001-2013
</metadata>
<g transform="translate(0.000000,512.000000) scale(0.100000,-0.100000)"
fill="#000000" stroke="none">
<path d="M704 4502 c-342 -114 -633 -216 -647 -226 -62 -47 -58 88 -55 -1931
3 -1790 4 -1841 22 -1868 23 -34 84 -67 125 -67 17 0 48 6 68 14 21 8 287 96
591 196 l552 182 588 -196 c323 -108 598 -196 612 -196 14 0 289 88 613 196
l587 196 597 -197 c530 -175 601 -196 640 -190 51 7 107 58 117 107 3 17 6
849 6 1850 0 1766 -1 1820 -19 1856 -11 22 -35 46 -57 58 -43 24 -1213 412
-1268 421 -27 4 -158 -36 -625 -192 l-591 -197 -588 196 c-323 108 -601 196
-617 195 -17 0 -310 -94 -651 -207z m3461 -506 c90 -24 149 -57 210 -120 140
-142 173 -339 87 -515 -54 -111 -186 -216 -298 -238 -69 -14 -186 -9 -244 10
-121 40 -232 146 -279 267 -31 78 -37 201 -14 279 68 233 314 377 538 317z
m-953 -295 c124 -47 126 -233 3 -279 -19 -7 -127 -12 -285 -14 -252 -3 -256
-3 -310 -29 -128 -61 -203 -172 -207 -305 -5 -171 98 -308 262 -353 27 -7 217
-11 552 -11 482 -1 516 -2 590 -21 192 -50 346 -176 427 -350 50 -107 66 -184
61 -309 -3 -113 -20 -174 -78 -285 -44 -86 -183 -220 -270 -263 -146 -71 -77
-66 -1154 -70 -962 -2 -973 -2 -1013 18 -43 22 -80 80 -80 124 0 43 31 105 64
129 l31 22 970 5 970 5 67 33 c77 38 130 92 167 171 22 47 26 70 26 141 -1 98
-25 164 -89 237 -38 43 -135 98 -191 108 -16 2 -259 5 -540 6 -462 0 -517 2
-581 19 -292 76 -492 332 -492 630 0 103 20 188 70 290 53 109 167 227 273
282 128 67 186 76 476 77 141 1 267 -3 281 -8z m-1802 -620 c132 -42 268 -148
338 -264 102 -168 117 -397 39 -567 -12 -25 -73 -135 -136 -245 -62 -110 -125
-220 -139 -245 -93 -166 -166 -288 -185 -308 -44 -47 -138 -53 -191 -11 -23
18 -83 113 -161 254 -16 28 -59 103 -97 168 -37 65 -68 120 -68 123 0 2 -12
23 -27 47 -135 214 -174 326 -169 487 8 271 192 500 460 570 94 25 244 21 336
-9z"/>
<path d="M3993 3693 c-77 -43 -102 -125 -61 -203 40 -75 113 -98 194 -61 67
30 101 121 72 188 -36 80 -132 116 -205 76z"/>
<path d="M1133 2796 c-131 -43 -213 -150 -219 -287 -4 -96 -4 -98 172 -403 65
-114 124 -215 129 -225 9 -16 33 21 150 226 77 135 148 266 157 291 21 61 17
162 -10 222 -29 66 -85 125 -146 155 -65 32 -171 42 -233 21z"/>
</g>
</svg>
